<svg width="40" height="40" viewBox="0 0 40 40" fill="none" xmlns="http://www.w3.org/2000/svg">
<circle cx="20" cy="20" r="20" fill="black"/>
<path d="M19.808 28.152C21.464 27.456 22.136 26.592 22.136 25.248C22.136 24.48 21.896 23.64 21.416 22.728C20.936 21.792 20.6 21.096 20.456 20.592C20.84 21.024 21.272 21.624 21.776 22.44C22.76 24.048 23.864 24.768 25.064 24.768C25.736 24.768 26.504 24.456 27.344 23.808L27.392 22.992C27.392 22.128 27.2 21.48 26.816 21C26.072 20.088 24.776 19.704 23.12 19.656C22.304 19.632 21.632 19.56 21.152 19.464C21.68 19.368 22.472 19.296 23.48 19.248C25.52 19.152 27.392 18.336 27.392 15.936L27.344 15.12C26.456 14.472 25.688 14.136 25.016 14.136C23.936 14.136 22.76 14.928 21.728 16.536C21.2 17.352 20.792 17.928 20.48 18.288C20.648 17.808 20.96 17.112 21.44 16.2C21.896 15.312 22.136 14.472 22.136 13.68C22.136 12.36 21.488 11.52 19.808 10.776C18.128 11.472 17.48 12.36 17.48 13.68C17.48 14.472 17.72 15.312 18.176 16.224C18.632 17.16 18.968 17.832 19.112 18.264C18.8 17.88 18.392 17.304 17.888 16.488C16.904 14.904 15.656 14.136 14.6 14.136C13.952 14.136 13.16 14.472 12.272 15.12L12.224 15.936C12.224 18.24 13.928 19.152 16.112 19.248C17.192 19.296 17.984 19.392 18.44 19.464C17.96 19.56 17.192 19.632 16.136 19.68C14.024 19.776 12.224 20.64 12.224 22.992L12.272 23.808C13.136 24.456 13.88 24.768 14.552 24.768C15.776 24.768 16.88 24 17.864 22.392C18.344 21.6 18.776 21 19.136 20.616C18.968 21.096 18.656 21.792 18.176 22.704C17.72 23.592 17.48 24.456 17.48 25.248C17.48 26.64 18.176 27.48 19.808 28.152ZM19.616 18.768C19.52 18.072 19.232 17.208 18.752 16.2C18.272 15.192 18.008 14.352 18.008 13.68C18.008 12.552 18.536 11.904 19.808 11.328V18.768H19.616ZM20.384 19.128L20.288 18.984C20.84 18.552 21.416 17.928 21.992 17.04C23.12 15.312 24.08 14.688 25.064 14.688C25.592 14.688 26.192 14.928 26.864 15.408L20.384 19.128ZM19.112 19.296C18.464 19.008 17.552 18.84 16.4 18.744C14.096 18.552 12.728 17.832 12.728 16.008L12.752 15.408L19.208 19.128L19.112 19.296ZM26.864 23.544L20.384 19.8L20.48 19.656C21.128 19.944 22.016 20.112 23.144 20.16C25.4 20.256 26.888 21.048 26.888 22.944V23.16L26.864 23.544ZM14.552 24.24C14 24.24 13.4 24 12.752 23.544L19.208 19.824L19.304 19.968C18.704 20.424 17.984 21.264 17.168 22.44C16.352 23.64 15.488 24.24 14.552 24.24ZM19.808 27.6V20.136H20C20.096 20.856 20.408 21.696 20.888 22.704C21.368 23.712 21.608 24.552 21.608 25.248C21.608 26.376 21.08 27.024 19.808 27.6Z" fill="#8908EF"/>
</svg>
